<?xml version="1.0" encoding="UTF-8"?>
<!DOCTYPE svg PUBLIC "-//W3C//DTD SVG 1.0//EN" "http://www.w3.org/TR/2001/REC-SVG-20010904/DTD/svg10.dtd">
<!-- Creator: CorelDRAW 2017 -->
<svg xmlns="http://www.w3.org/2000/svg" xml:space="preserve" width="100.608mm" height="58.734mm" version="1.0" style="shape-rendering:geometricPrecision; text-rendering:geometricPrecision; image-rendering:optimizeQuality; fill-rule:evenodd; clip-rule:evenodd"
viewBox="0 0 10060.8 5873.4"
 xmlns:xlink="http://www.w3.org/1999/xlink">
 <defs>
  <style type="text/css">
   <![CDATA[
    .fil13 {fill:#2B2A29}
    .fil6 {fill:#FFF7B2}
    .fil1 {fill:#FFED00}
    .fil0 {fill:#EA556F}
    .fil3 {fill:#EA556F}
    .fil5 {fill:#FFF3B1}
    .fil14 {fill:#78591F}
    .fil8 {fill:#503A1A}
    .fil7 {fill:#5C351B}
    .fil12 {fill:#40251A}
    .fil9 {fill:#7A4024}
    .fil2 {fill:#66C3D0}
    .fil11 {fill:#57A7B3}
    .fil10 {fill:#40251A;fill-rule:nonzero}
    .fil4 {fill:url(#id40)}
   ]]>
  </style>
    <mask id="id0">
  <linearGradient id="id1" gradientUnits="userSpaceOnUse" x1="2342.62" y1="4657.5" x2="1916.12" y2="4572.86">
   <stop offset="0" style="stop-opacity:1; stop-color:white"/>
   <stop offset="1" style="stop-opacity:0; stop-color:white"/>
  </linearGradient>
     <rect style="fill:url(#id1)" x="916.26" y="734.26" width="1573.99" height="4511.02"/>
    </mask>
    <mask id="id2">
  <linearGradient id="id3" gradientUnits="userSpaceOnUse" x1="1750.19" y1="1241.27" x2="1444.99" y2="1414.92">
   <stop offset="0" style="stop-opacity:1; stop-color:white"/>
   <stop offset="1" style="stop-opacity:0; stop-color:white"/>
  </linearGradient>
     <rect style="fill:url(#id3)" x="916.26" y="734.26" width="1573.99" height="4511.02"/>
    </mask>
    <mask id="id4">
  <linearGradient id="id5" gradientUnits="userSpaceOnUse" x1="1486.11" y1="1767" x2="1662.33" y2="2307.85">
   <stop offset="0" style="stop-opacity:1; stop-color:white"/>
   <stop offset="1" style="stop-opacity:0; stop-color:white"/>
  </linearGradient>
     <rect style="fill:url(#id5)" x="1412.88" y="1599.1" width="433.74" height="1039.67"/>
    </mask>
    <mask id="id6">
  <linearGradient id="id7" gradientUnits="userSpaceOnUse" x1="1975.88" y1="2172.21" x2="1912.45" y2="2806.45">
   <stop offset="0" style="stop-opacity:1; stop-color:white"/>
   <stop offset="1" style="stop-opacity:0; stop-color:white"/>
  </linearGradient>
     <rect style="fill:url(#id7)" x="1799.55" y="2062" width="324.57" height="830.81"/>
    </mask>
    <mask id="id8">
  <linearGradient id="id9" gradientUnits="userSpaceOnUse" x1="1102.03" y1="2330.77" x2="1538.96" y2="2948.13">
   <stop offset="0" style="stop-opacity:1; stop-color:white"/>
   <stop offset="1" style="stop-opacity:0; stop-color:white"/>
  </linearGradient>
     <rect style="fill:url(#id9)" x="1158.07" y="2250.08" width="471.8" height="708.05"/>
    </mask>
    <mask id="id10">
  <linearGradient id="id11" gradientUnits="userSpaceOnUse" x1="1717.56" y1="3028.39" x2="1717.56" y2="3453.19">
   <stop offset="0" style="stop-opacity:1; stop-color:white"/>
   <stop offset="1" style="stop-opacity:0; stop-color:white"/>
  </linearGradient>
     <rect style="fill:url(#id11)" x="1092.03" y="3234.27" width="1222.45" height="351.18"/>
    </mask>
    <mask id="id12">
  <linearGradient id="id13" gradientUnits="userSpaceOnUse" x1="1632.11" y1="3076.33" x2="1593.32" y2="2675.57">
   <stop offset="0" style="stop-opacity:1; stop-color:white"/>
   <stop offset="1" style="stop-opacity:0; stop-color:white"/>
  </linearGradient>
     <rect style="fill:url(#id13)" x="1158.01" y="1989.53" width="568.95" height="968.6"/>
    </mask>
    <mask id="id14">
  <linearGradient id="id15" gradientUnits="userSpaceOnUse" x1="1596.07" y1="2370.93" x2="1403.95" y2="2497.55">
   <stop offset="0" style="stop-opacity:1; stop-color:white"/>
   <stop offset="1" style="stop-opacity:0; stop-color:white"/>
  </linearGradient>
     <rect style="fill:url(#id15)" x="1158.01" y="1989.53" width="568.95" height="968.6"/>
    </mask>
    <mask id="id16">
  <linearGradient id="id17" gradientUnits="userSpaceOnUse" x1="1130.54" y1="2953.85" x2="1441.27" y2="3686.13">
   <stop offset="0" style="stop-opacity:1; stop-color:white"/>
   <stop offset="1" style="stop-opacity:0; stop-color:white"/>
  </linearGradient>
     <rect style="fill:url(#id17)" x="1092.03" y="3234.27" width="497.52" height="351.18"/>
    </mask>
    <mask id="id18">
  <linearGradient id="id19" gradientUnits="userSpaceOnUse" x1="1011.02" y1="3542.15" x2="1450.1" y2="4111.98">
   <stop offset="0" style="stop-opacity:1; stop-color:white"/>
   <stop offset="1" style="stop-opacity:0; stop-color:white"/>
  </linearGradient>
     <rect style="fill:url(#id19)" x="976.36" y="3649.27" width="616.24" height="724.99"/>
    </mask>
    <mask id="id20">
  <linearGradient id="id21" gradientUnits="userSpaceOnUse" x1="1053.6" y1="2874.26" x2="1253.51" y2="3283.07">
   <stop offset="0" style="stop-opacity:1; stop-color:white"/>
   <stop offset="1" style="stop-opacity:0; stop-color:white"/>
  </linearGradient>
     <rect style="fill:url(#id21)" x="916.26" y="2938.13" width="789.27" height="230.17"/>
    </mask>
    <mask id="id22">
  <linearGradient id="id23" gradientUnits="userSpaceOnUse" x1="1745.02" y1="5223.29" x2="1745.06" y2="4691.44">
   <stop offset="0" style="stop-opacity:1; stop-color:white"/>
   <stop offset="1" style="stop-opacity:0; stop-color:white"/>
  </linearGradient>
     <rect style="fill:url(#id23)" x="916.27" y="734.26" width="1573.98" height="4511.02"/>
    </mask>
    <mask id="id24">
  <linearGradient id="id25" gradientUnits="userSpaceOnUse" x1="1280.42" y1="3575.45" x2="1703.26" y2="4375.89">
   <stop offset="0" style="stop-opacity:1; stop-color:white"/>
   <stop offset="0.65098" style="stop-opacity:-34.6392; stop-color:white"/>
   <stop offset="1" style="stop-opacity:0; stop-color:white"/>
  </linearGradient>
     <rect style="fill:url(#id25)" x="976.36" y="3649.28" width="1453.79" height="1596"/>
    </mask>
    <mask id="id26">
  <linearGradient id="id27" gradientUnits="userSpaceOnUse" x1="1803.59" y1="2543.06" x2="1494.86" y2="1713.77">
   <stop offset="0" style="stop-opacity:1; stop-color:white"/>
   <stop offset="1" style="stop-opacity:0; stop-color:white"/>
  </linearGradient>
     <rect style="fill:url(#id27)" x="1244.4" y="734.26" width="602.22" height="1904.52"/>
    </mask>
    <mask id="id28">
  <linearGradient id="id29" gradientUnits="userSpaceOnUse" x1="1384.86" y1="945.67" x2="1722.64" y2="1370.51">
   <stop offset="0" style="stop-opacity:1; stop-color:white"/>
   <stop offset="1" style="stop-opacity:0; stop-color:white"/>
  </linearGradient>
     <rect style="fill:url(#id29)" x="1244.4" y="734.26" width="602.22" height="1904.52"/>
    </mask>
    <mask id="id30">
  <linearGradient id="id31" gradientUnits="userSpaceOnUse" x1="1275.27" y1="3193.69" x2="2183.86" y2="3794.01">
   <stop offset="0" style="stop-opacity:1; stop-color:white"/>
   <stop offset="1" style="stop-opacity:0; stop-color:white"/>
  </linearGradient>
     <rect style="fill:url(#id31)" x="1092.03" y="3234.26" width="1222.46" height="351.19"/>
    </mask>
    <mask id="id32">
  <linearGradient id="id33" gradientUnits="userSpaceOnUse" x1="1053.66" y1="3088.57" x2="1550" y2="2385.45">
   <stop offset="0" style="stop-opacity:1; stop-color:white"/>
   <stop offset="1" style="stop-opacity:0; stop-color:white"/>
  </linearGradient>
     <rect style="fill:url(#id33)" x="916.27" y="1989.53" width="1573.98" height="1178.77"/>
    </mask>
    <mask id="id34">
  <linearGradient id="id35" gradientUnits="userSpaceOnUse" x1="1191.83" y1="2039.06" x2="1333.7" y2="2305.96">
   <stop offset="0" style="stop-opacity:1; stop-color:white"/>
   <stop offset="1" style="stop-opacity:0; stop-color:white"/>
  </linearGradient>
     <rect style="fill:url(#id35)" x="916.27" y="1989.53" width="1573.98" height="1178.77"/>
    </mask>
    <mask id="id36">
  <linearGradient id="id37" gradientUnits="userSpaceOnUse" x1="2051.2" y1="2948.12" x2="1975.98" y2="2048.59">
   <stop offset="0" style="stop-opacity:1; stop-color:white"/>
   <stop offset="1" style="stop-opacity:0; stop-color:white"/>
  </linearGradient>
     <rect style="fill:url(#id37)" x="1717.08" y="1441.88" width="531.42" height="1450.93"/>
    </mask>
    <mask id="id38">
  <linearGradient id="id39" gradientUnits="userSpaceOnUse" x1="1908.69" y1="1451.88" x2="2052.94" y2="1990.87">
   <stop offset="0" style="stop-opacity:1; stop-color:white"/>
   <stop offset="1" style="stop-opacity:0; stop-color:white"/>
  </linearGradient>
     <rect style="fill:url(#id39)" x="1717.08" y="1441.88" width="531.42" height="1450.93"/>
    </mask>
  <linearGradient id="id40" gradientUnits="userSpaceOnUse" x1="926.26" y1="2989.77" x2="2480.24" y2="2989.77">
   <stop offset="0" style="stop-opacity:1; stop-color:#FCCD57"/>
   <stop offset="0.101961" style="stop-opacity:1; stop-color:#B5722B"/>
   <stop offset="0.501961" style="stop-opacity:1; stop-color:#FFF7B2"/>
   <stop offset="0.6" style="stop-opacity:1; stop-color:#9D5D2A"/>
   <stop offset="0.819608" style="stop-opacity:1; stop-color:#E09F4E"/>
   <stop offset="1" style="stop-opacity:1; stop-color:#9D5D2A"/>
  </linearGradient>
 </defs>
 <g id="Layer_x0020_1">
  <metadata id="CorelCorpID_0Corel-Layer"/>
  <g id="_1534789944128">
   <path class="fil0" d="M2481.82 2670.84l106.5 -65.73 236.66 22.48 -227.77 68.53 -115.39 -25.28z"/>
   <path class="fil1" d="M2835.96 2450.48l313.45 -173.17 776.92 70.91 -764.08 190.58 -326.29 -88.32z"/>
   <path class="fil0" d="M2779.87 1732.21l139.63 -97.93 364.64 7.63 -331.66 118.84 -172.61 -28.54z"/>
   <path class="fil2" d="M3551.26 5023.62c0,-46.72 16.14,-86.36 48.56,-118.79 32.43,-32.34 72.08,-48.57 119.03,-48.57 46.84,0 86.45,16.23 118.91,48.57 32.44,32.43 48.65,72.07 48.65,118.79 0,46.84 -16.21,86.49 -48.65,119.03 -32.46,32.55 -72.07,48.77 -118.91,48.77 -46.95,0 -86.6,-16.22 -119.03,-48.77 -32.42,-32.54 -48.56,-72.19 -48.56,-119.03z"/>
   <path class="fil1" d="M4997.53 4380.08c0,-46.72 16.12,-86.36 48.57,-118.79 32.44,-32.33 72.08,-48.56 119.02,-48.56 46.83,0 86.46,16.23 118.91,48.56 32.44,32.43 48.66,72.07 48.66,118.79 0,46.85 -16.22,86.49 -48.66,119.04 -32.45,32.55 -72.08,48.76 -118.91,48.76 -46.94,0 -86.58,-16.21 -119.02,-48.76 -32.45,-32.55 -48.57,-72.19 -48.57,-119.04z"/>
   <path class="fil3" d="M3141 3736.55c0,-46.73 16.13,-86.36 48.56,-118.79 32.44,-32.34 72.09,-48.56 119.01,-48.56 46.86,0 86.48,16.22 118.93,48.56 32.43,32.43 48.65,72.06 48.65,118.79 0,46.85 -16.22,86.49 -48.65,119.02 -32.45,32.57 -72.07,48.78 -118.93,48.78 -46.92,0 -86.57,-16.21 -119.01,-48.78 -32.43,-32.53 -48.56,-72.17 -48.56,-119.02z"/>
   <path class="fil4" d="M1908.7 1451.88c-565.36,627.06 417.78,693.78 -97.57,1430.94 122.98,-51.5 216.34,-125.82 283.94,-206.88 191.27,-229.32 185.92,-478.46 15.61,-717.33 -107.59,-150.9 -238.54,-270.29 -201.98,-506.73zm571.54 1661.29l-74.51 45.14 -702.47 0 -702.48 0 -74.52 -45.14 81.1 -165.05 531.58 0c25.35,-289.43 -616.8,-293.02 -265.67,-948.6 4.86,265.96 443.69,391.37 443.69,706.29 0,88.56 -33.54,171.31 -134,242.31l120.3 0 695.89 0 81.09 165.05zm-658.93 -484.39c-42.57,-392.48 -566.93,-535.78 -566.93,-953.16 0,-372.76 437.15,-567.95 352.01,-931.36 337.51,342.08 227.41,546.03 106.41,726.82 -151.04,225.65 -196.67,355.82 -51.34,612.23 92.54,163.25 219.35,278.08 159.85,545.47zm-118.05 1030.49l409.81 0c-1.98,21.18 -3.01,42.61 -3.01,64.26 0,240.44 123.29,452 310.1,575.05 -302.6,220.67 -526.9,523.36 -653.63,928.29 -1.77,5.69 -7.36,9.16 -13.24,8.25 -5.89,-0.89 -10.14,-5.87 -10.14,-11.84l0 -767.25c70.4,-17.78 122.54,-81.52 122.54,-157.45 0,-89.7 -72.73,-162.41 -162.43,-162.41 -89.71,0 -162.44,72.71 -162.44,162.41 0,75.93 52.14,139.67 122.55,157.45l0 767.25c0,5.97 -4.26,10.95 -10.15,11.84 -5.89,0.91 -11.46,-2.56 -13.23,-8.25 -126.73,-404.93 -351.05,-707.62 -653.64,-928.29 186.82,-123.05 310.12,-334.61 310.12,-575.05 0,-21.65 -1.04,-43.08 -3.02,-64.26l409.81 0zm601.23 -415.01l-601.23 0 -601.23 0c87.49,90.11 150.51,204.06 178.39,331.19l422.84 0 422.83 0c27.89,-127.13 90.91,-241.08 178.4,-331.19z"/>
   <path class="fil5" style="mask:url(#id0)" d="M1908.7 1451.87c-565.37,627.09 417.77,693.79 -97.57,1430.94 122.99,-51.48 216.34,-125.81 283.93,-206.86 191.28,-229.34 185.93,-478.47 15.63,-717.34 -107.6,-150.92 -238.55,-270.3 -201.99,-506.74zm-87.4 1176.9c-42.56,-392.47 -566.9,-535.76 -566.9,-953.15 0,-372.75 437.12,-567.96 351.97,-931.36 337.54,342.08 227.44,546.04 106.43,726.82 -151.05,225.66 -196.66,355.83 -51.33,612.24 92.53,163.25 219.35,278.07 159.83,545.45zm-118.04 1030.51l409.8 0c-1.97,21.16 -3.01,42.59 -3.01,64.27 0,240.41 123.3,451.98 310.1,575.03 -302.59,220.67 -526.9,523.37 -653.62,928.29 -1.78,5.69 -7.36,9.16 -13.24,8.26 -5.88,-0.91 -10.14,-5.89 -10.14,-11.84l0 -767.26c70.41,-17.78 122.52,-81.52 122.52,-157.45 0,-89.7 -72.71,-162.41 -162.41,-162.41 -89.71,0 -162.42,72.71 -162.42,162.41 0,75.93 52.12,139.67 122.52,157.45l0 767.26c0,5.95 -4.25,10.93 -10.14,11.84 -5.89,0.9 -11.46,-2.57 -13.24,-8.26 -126.72,-404.92 -351.02,-707.62 -653.62,-928.29 186.8,-123.05 310.1,-334.62 310.1,-575.03 0,-21.68 -1.04,-43.11 -3.01,-64.27l409.81 0zm601.22 -415.01l-601.22 0 -601.23 0c87.49,90.09 150.51,204.05 178.41,331.18l422.82 0 422.82 0c27.89,-127.13 90.91,-241.09 178.4,-331.18zm-1031.22 -1244.74c-351.13,655.57 291.03,659.16 265.7,948.6l-531.61 0 -81.09 165.05 74.52 45.12 702.48 0 702.47 0 74.52 -45.12 -81.09 -165.05 -695.9 0 -120.3 0c100.47,-71.01 134,-153.77 134,-242.32 0,-314.92 -438.82,-440.33 -443.7,-706.28z"/>
   <path class="fil6" style="mask:url(#id2)" d="M1908.7 1451.87c-565.37,627.09 417.77,693.79 -97.57,1430.94 122.99,-51.48 216.34,-125.81 283.93,-206.86 191.28,-229.34 185.93,-478.47 15.63,-717.34 -107.6,-150.92 -238.55,-270.3 -201.99,-506.74zm-87.4 1176.9c-42.56,-392.47 -566.9,-535.76 -566.9,-953.15 0,-372.75 437.12,-567.96 351.97,-931.36 337.54,342.08 227.44,546.04 106.43,726.82 -151.05,225.66 -196.66,355.83 -51.33,612.24 92.53,163.25 219.35,278.07 159.83,545.45zm-118.04 1030.51l409.8 0c-1.97,21.16 -3.01,42.59 -3.01,64.27 0,240.41 123.3,451.98 310.1,575.03 -302.59,220.67 -526.9,523.37 -653.62,928.29 -1.78,5.69 -7.36,9.16 -13.24,8.26 -5.88,-0.91 -10.14,-5.89 -10.14,-11.84l0 -767.26c70.41,-17.78 122.52,-81.52 122.52,-157.45 0,-89.7 -72.71,-162.41 -162.41,-162.41 -89.71,0 -162.42,72.71 -162.42,162.41 0,75.93 52.12,139.67 122.52,157.45l0 767.26c0,5.95 -4.25,10.93 -10.14,11.84 -5.89,0.9 -11.46,-2.57 -13.24,-8.26 -126.72,-404.92 -351.02,-707.62 -653.62,-928.29 186.8,-123.05 310.1,-334.62 310.1,-575.03 0,-21.68 -1.04,-43.11 -3.01,-64.27l409.81 0zm601.22 -415.01l-601.22 0 -601.23 0c87.49,90.09 150.51,204.05 178.41,331.18l422.82 0 422.82 0c27.89,-127.13 90.91,-241.09 178.4,-331.18zm-1031.22 -1244.74c-351.13,655.57 291.03,659.16 265.7,948.6l-531.61 0 -81.09 165.05 74.52 45.12 702.48 0 702.47 0 74.52 -45.12 -81.09 -165.05 -695.9 0 -120.3 0c100.47,-71.01 134,-153.77 134,-242.32 0,-314.92 -438.82,-440.33 -443.7,-706.28z"/>
   <path class="fil7" style="mask:url(#id4)" d="M1821.3 2628.77c-25.02,-230.69 -216.49,-375.3 -370.09,-540.07 -99.45,-99.45 87.95,-339.8 177.82,-479.6 -78.12,151.34 -80.77,274.48 32.44,474.22 92.52,163.25 219.35,278.07 159.83,545.45z"/>
   <path class="fil7" style="mask:url(#id6)" d="M1809.55 2072c116.17,203.97 284.17,406.59 1.58,810.81 122.99,-51.48 216.34,-125.81 283.93,-206.86 90.93,-194.69 -166.78,-456.45 -285.51,-603.95z"/>
   <path class="fil7" style="mask:url(#id8)" d="M1175.58 2260.08c-10.98,351.02 482.05,422.77 441.97,660.89 -10.53,9.22 -22.03,18.29 -34.59,27.16l-44 0c21.42,-244.72 -434.31,-285.13 -363.38,-688.05z"/>
   <path class="fil8" style="mask:url(#id10)" d="M1703.26 3244.27l601.22 0c-87.49,90.09 -150.51,204.05 -178.4,331.18l-422.82 0 -422.82 0c-27.9,-127.13 -90.92,-241.09 -178.41,-331.18l601.23 0z"/>
   <path class="fil9" style="mask:url(#id12)" d="M1538.96 2948.13c25.33,-289.44 -616.83,-293.03 -265.7,-948.6 4.88,265.95 443.7,391.36 443.7,706.28 0,88.55 -33.53,171.31 -134,242.32l-44 0z"/>
   <path class="fil6" style="mask:url(#id14)" d="M1538.96 2948.13c25.33,-289.44 -616.83,-293.03 -265.7,-948.6 4.88,265.95 443.7,391.36 443.7,706.28 0,88.55 -33.53,171.31 -134,242.32l-44 0z"/>
   <path class="fil7" style="mask:url(#id16)" d="M1579.55 3575.45c-11.31,-155.49 -144.07,-301.62 -233.65,-331.18l-243.87 0c87.49,90.09 150.51,204.05 178.41,331.18l299.11 0z"/>
   <path class="fil7" style="mask:url(#id18)" d="M1071.12 4364.26c220.07,-79.67 475.58,-282.56 511.48,-704.99l-289.15 0c1.97,21.17 3.02,42.59 3.02,64.28 0,240.41 -123.31,451.98 -310.11,575.03 28.98,21.13 57.24,43.03 84.76,65.68z"/>
   <path class="fil7" style="mask:url(#id20)" d="M1457.5 3158.3c45.86,-97.25 129.46,-163.85 238.03,-210.17l-688.18 0 -81.09 165.04 74.52 45.13 456.72 0z"/>
   <path class="fil10" d="M9795.92 4086.26l0 -70.78 146.47 0 0 70.78 -146.47 0zm-4869.28 293.83c0,64.89 22.88,119.77 68.64,164.67 45.77,44.92 102.37,67.37 169.83,67.37 67.46,0 123.97,-22.45 169.72,-67.37 45.77,-44.9 68.65,-99.78 68.65,-164.67 0,-64.78 -22.88,-119.66 -68.65,-164.57 -45.75,-44.9 -102.26,-67.34 -169.72,-67.34 -67.46,0 -124.06,22.44 -169.83,67.34 -45.76,44.91 -68.64,99.79 -68.64,164.57zm70.9 0c0,-46.73 16.12,-86.36 48.55,-118.8 32.44,-32.34 72.09,-48.56 119.02,-48.56 46.84,0 86.47,16.22 118.92,48.56 32.43,32.44 48.65,72.07 48.65,118.8 0,46.84 -16.22,86.48 -48.65,119.03 -32.45,32.55 -72.08,48.76 -118.92,48.76 -46.93,0 -86.58,-16.21 -119.02,-48.76 -32.43,-32.55 -48.55,-72.19 -48.55,-119.03zm1369.24 0c0,-46.73 16.12,-86.36 48.56,-118.8 32.44,-32.34 72.08,-48.56 119.02,-48.56 46.84,0 86.47,16.22 118.92,48.56 32.44,32.44 48.66,72.07 48.66,118.8 0,46.84 -16.22,86.48 -48.66,119.03 -32.45,32.55 -72.08,48.76 -118.92,48.76 -46.94,0 -86.58,-16.21 -119.02,-48.76 -32.44,-32.55 -48.56,-72.19 -48.56,-119.03zm-70.89 0c0,64.89 22.89,119.77 68.64,164.67 45.76,44.92 102.37,67.37 169.83,67.37 67.46,0 123.97,-22.45 169.72,-67.37 45.77,-44.9 68.64,-99.78 68.64,-164.67 0,-64.78 -22.87,-119.66 -68.64,-164.57 -45.75,-44.9 -102.26,-67.34 -169.72,-67.34 -67.46,0 -124.07,22.44 -169.83,67.34 -45.75,44.91 -68.64,99.79 -68.64,164.57zm3764.91 225.69l0 -451.28 -61.02 0 -251.47 325.71 0 -325.71 -70.79 0 0 451.28 61.02 0 251.48 -325.37 0 325.37 70.78 0zm-858.09 -64.56l0 -161.13 103.23 0c22.23,0 41.15,7.84 56.94,23.31 15.68,15.58 23.63,34.7 23.63,57.48 0,22.76 -7.95,41.88 -23.63,57.25 -15.79,15.46 -34.71,23.09 -56.94,23.09l-103.23 0zm103.23 64.56c42.96,0 78.94,-14.07 107.96,-42.22 28.88,-28.03 43.39,-62.3 43.39,-102.68 0,-40.4 -14.51,-74.67 -43.39,-102.91 -29.02,-28.26 -65,-42.33 -107.96,-42.33l-103.23 0 0 -161.14 -70.8 0 0 451.28 174.03 0zm280.36 -451.28l-71.1 0 0 451.28 71.1 0 0 -451.28zm-545.61 0l-70.78 0 0 190.36 -222.48 0 0 -190.36 -70.78 0 0 451.28 70.78 0 0 -196.68 222.48 0 0 196.68 70.78 0 0 -451.28zm-690.63 386.72l0 -161.13 109.48 0c22.44,0 41.56,7.84 57.14,23.31 15.68,15.58 23.4,34.7 23.4,57.48 0,22.76 -7.84,41.88 -23.52,57.25 -15.79,15.46 -34.8,23.09 -57.02,23.09l-109.48 0zm109.48 64.56c43.06,0 79.05,-14.07 108.16,-42.22 29,-28.03 43.51,-62.3 43.51,-102.68 0,-40.4 -14.51,-74.67 -43.51,-102.91 -29.11,-28.26 -65.1,-42.33 -108.16,-42.33l-109.48 0 0 -161.14 -70.79 0 0 451.28 180.27 0zm-271.8 -451.28l-306.14 0 0 135.36c0,51.98 -1.94,95.28 -5.7,129.98 -3.77,34.59 -9.66,60.37 -17.62,77.34 -7.95,16.98 -16.44,28.57 -25.35,34.8 -8.91,6.24 -19.55,9.24 -31.9,9.24 -10.74,0 -22.45,-2.04 -35.23,-6.22l0 67.68 6.86 1.82c4.84,1.71 11.61,3.43 20.19,5.03 8.61,1.73 16.78,2.6 24.5,2.6 21.81,0 40.39,-4.41 55.54,-13.11 15.26,-8.7 29.22,-24.4 41.9,-47.05 12.67,-22.67 22.12,-55.86 28.47,-99.47 6.33,-43.62 9.44,-97.86 9.44,-162.64l0 -70.9 164.25 0 0 386.82 70.79 0 0 -451.28zm-456.02 451.28l0 -451.28 -61.03 0 -251.47 325.71 0 -325.71 -70.8 0 0 451.28 61.03 0 251.47 -325.37 0 325.37 70.8 0zm-854.67 -231.93c0,-36.07 11.82,-65.09 35.45,-87 23.53,-21.91 56.82,-33.73 99.91,-35.45l0 244.82c-43.09,-1.61 -76.38,-13.43 -99.91,-35.34 -23.63,-21.91 -35.45,-50.93 -35.45,-87.03zm341.49 0c0,36.1 -11.81,65.12 -35.45,87.03 -23.63,21.91 -56.92,33.73 -99.89,35.34l0 -244.82c42.97,1.72 76.26,13.54 99.89,35.45 23.64,21.91 35.45,50.93 35.45,87zm70.79 -0.2c0,-51.03 -18.9,-94 -56.71,-128.8 -37.7,-34.91 -87.55,-53.07 -149.42,-54.79l0 -48.44 -70.79 0 0 48.44c-61.87,1.72 -111.82,19.88 -149.63,54.79 -37.93,34.8 -56.84,77.77 -56.84,128.8 0,51.13 18.91,94.09 56.84,128.91 37.81,34.8 87.76,53.05 149.63,54.78l0 61.33 70.79 0 0 -61.33c61.87,-1.73 111.72,-19.98 149.42,-54.78 37.81,-34.82 56.71,-77.78 56.71,-128.91zm-3958.3 0.2l-174.02 -219.35 -61.01 0 0 451.28 70.78 0 0 -328.6 164.25 206.14 164.58 -206.14 0 328.6 70.79 0 0 -451.28 -61.34 0 -174.03 219.35zm690.63 -219.35l-70.78 0 0 190.36 -222.48 0 0 -190.36 -70.79 0 0 451.28 70.79 0 0 -196.68 222.48 0 0 196.68 70.78 0 0 -451.28zm136.23 225.59c0,-46.73 16.13,-86.36 48.57,-118.8 32.42,-32.34 72.07,-48.56 119.01,-48.56 46.84,0 86.46,16.22 118.92,48.56 32.43,32.44 48.65,72.07 48.65,118.8 0,46.84 -16.22,86.48 -48.65,119.03 -32.46,32.55 -72.08,48.76 -118.92,48.76 -46.94,0 -86.59,-16.21 -119.01,-48.76 -32.44,-32.55 -48.57,-72.19 -48.57,-119.03zm-70.9 0c0,64.89 22.89,119.77 68.65,164.67 45.77,44.92 102.37,67.37 169.83,67.37 67.45,0 123.96,-22.45 169.72,-67.37 45.77,-44.9 68.64,-99.78 68.64,-164.67 0,-64.78 -22.87,-119.66 -68.64,-164.57 -45.76,-44.9 -102.27,-67.34 -169.72,-67.34 -67.46,0 -124.06,22.44 -169.83,67.34 -45.76,44.91 -68.65,99.79 -68.65,164.57zm542.5 225.69l70.79 0 0 -386.82 219.03 0 0 -64.46 -289.82 0 0 451.28zm1203.69 -451.28l-364.05 0 0 451.28 70.79 0 0 -386.82 222.48 0 0 386.82 70.78 0 0 -451.28zm91.22 0l0 451.28 70.79 0 0 -161.12 109.47 0c43.07,0 79.06,-14.07 108.17,-42.22 29.01,-28.05 43.5,-62.31 43.5,-102.7 0,-40.38 -14.49,-74.65 -43.5,-102.91 -29.11,-28.25 -65.1,-42.33 -108.17,-42.33l-180.26 0zm180.26 64.46c22.23,0 41.24,7.84 57.03,23.31 15.69,15.58 23.53,34.7 23.53,57.47 0,22.78 -7.84,41.9 -23.53,57.25 -15.79,15.47 -34.8,23.1 -57.03,23.1l-109.47 0 0 -161.13 109.47 0z"/>
   <path class="fil10" d="M6986.2 3442.72l0 -70.78 146.46 0 0 70.78 -146.46 0zm-3845.19 293.84c0,-46.74 16.12,-86.37 48.55,-118.81 32.44,-32.33 72.09,-48.55 119.02,-48.55 46.84,0 86.47,16.22 118.92,48.55 32.43,32.44 48.65,72.07 48.65,118.81 0,46.84 -16.22,86.48 -48.65,119.02 -32.45,32.55 -72.08,48.77 -118.92,48.77 -46.93,0 -86.58,-16.22 -119.02,-48.77 -32.43,-32.54 -48.55,-72.18 -48.55,-119.02zm-70.9 0c0,64.87 22.88,119.77 68.64,164.67 45.77,44.91 102.37,67.36 169.83,67.36 67.46,0 123.97,-22.45 169.72,-67.36 45.77,-44.9 68.65,-99.8 68.65,-164.67 0,-64.78 -22.88,-119.67 -68.65,-164.57 -45.75,-44.9 -102.26,-67.35 -169.72,-67.35 -67.46,0 -124.06,22.45 -169.83,67.35 -45.76,44.9 -68.64,99.79 -68.64,164.57zm4180.97 225.69l0 -451.29 -61.03 0 -251.47 325.7 0 -325.7 -70.79 0 0 451.29 61.02 0 251.48 -325.37 0 325.37 70.79 0zm-474.82 0l0 -451.29 -61.02 0 -251.48 325.7 0 -325.7 -70.78 0 0 451.29 61.01 0 251.48 -325.37 0 325.37 70.79 0zm-722.76 -451.29l-70.79 0 0 451.29 70.79 0 0 -135.35 70.79 -77.34 148.25 212.69 87.12 0 -186.92 -264.37 174.03 -186.92 -90.33 0 -202.94 219.36 0 -219.36zm-310.24 -6.32c-67.56,0 -124.17,22.45 -169.94,67.35 -45.76,44.9 -68.64,99.79 -68.64,164.57 0,64.87 22.88,119.77 68.64,164.67 45.77,44.91 102.38,67.36 169.94,67.36 22.67,0 44.79,-3.23 66.28,-9.67 21.48,-6.35 38.89,-13.53 52.21,-21.48 13.32,-8.07 25.89,-17.19 37.81,-27.39 11.82,-10.33 19.45,-17.52 22.99,-21.6 3.43,-4.09 6.02,-7.42 7.63,-9.88l-45.35 -45.34 -4.93 7.84c-4.08,4.84 -10.1,10.65 -18.15,17.52 -8.06,6.76 -17.41,13.64 -28.04,20.62 -10.52,6.87 -23.84,12.79 -39.96,17.72 -16,4.94 -32.87,7.42 -50.49,7.42 -46.95,0 -86.69,-16.22 -119.12,-48.77 -32.44,-32.54 -48.56,-72.18 -48.56,-119.02 0,-46.74 16.22,-86.37 48.76,-118.81 32.45,-32.33 72.08,-48.55 118.92,-48.55 17.62,0 34.37,2.46 50.17,7.41 15.91,4.93 28.68,10.21 38.56,16 9.89,5.81 19.12,12.69 27.71,20.63 8.61,7.94 14.08,13.43 16.56,16.53 2.35,3.02 4.18,5.39 5.47,7.11l45.01 -45.34 -6.88 -8.81c-4.82,-6.12 -12.46,-13.33 -22.67,-21.71 -10.3,-8.37 -22.34,-16.95 -36.08,-25.56 -13.75,-8.59 -31.05,-15.89 -52.11,-21.8 -20.95,-6.02 -42.86,-9.02 -65.74,-9.02zm-303.91 6.32l-70.78 0 0 190.37 -222.48 0 0 -190.37 -70.8 0 0 451.29 70.8 0 0 -196.69 222.48 0 0 196.69 70.78 0 0 -451.29zm-626.17 80.58l74.02 186.91 -148.26 0 74.24 -186.91zm-222.47 370.71l74.01 0 48.45 -119.24 199.81 0 48.44 119.24 74.01 0 -186.9 -451.29 -70.9 0 -186.92 451.29zm-39.43 -451.29l-70.9 0 0 386.73 -164.25 0 0 -386.73 -71.12 0 0 386.73 -164.24 0 0 -386.73 -70.8 0 0 451.29 541.31 0 0 -451.29zm-758.42 64.46c22.23,0 41.24,7.85 57.04,23.3 15.68,15.59 23.52,34.71 23.52,57.48 0,22.78 -7.84,41.91 -23.52,57.26 -15.8,15.47 -34.81,23.1 -57.04,23.1l-109.47 0 0 -161.14 109.47 0zm-180.26 -64.46l0 451.29 70.79 0 0 -161.12 109.47 0c43.07,0 79.05,-14.08 108.16,-42.22 29.02,-28.06 43.52,-62.32 43.52,-102.71 0,-40.39 -14.5,-74.66 -43.52,-102.9 -29.11,-28.26 -65.09,-42.34 -108.16,-42.34l-180.26 0z"/>
   <path class="fil10" d="M3166.78 4798.04l-70.78 0 0 451.27 70.78 0 0 -135.33 70.79 -77.36 148.25 212.69 87.11 0 -186.91 -264.35 174.03 -186.92 -90.34 0 -202.93 219.36 0 -219.36zm2858.78 451.27l71.12 0 0 -164.24 45.01 -48.45 148.24 212.69 87.11 0 -186.9 -264.35 174.02 -186.92 -90.34 0 -177.14 190.35 0 -190.35 -71.12 0 0 190.35 -177.14 -190.35 -90.33 0 174.01 186.92 -186.91 264.35 87.12 0 148.24 -212.69 45.01 48.45 0 164.24zm-566.03 -315.92l0 -70.89 151.34 0 0 322.26 -228.8 0 7.95 -8.17c5.37,-5.58 11.93,-15.25 19.45,-28.79 7.62,-13.52 15.14,-29.43 22.66,-47.69 7.63,-18.25 14.07,-42.22 19.33,-71.86 5.37,-29.65 8.07,-61.34 8.07,-94.86zm-174.02 251.37l0 161.13 70.78 0 0 -96.58 309.37 0 0 96.58 71.12 0 0 -161.13 -54.79 0 0 -386.72 -293.26 0 0 135.35c0,33.52 -2.8,65.32 -8.48,95.5 -5.69,30.07 -11.93,53.81 -18.7,71.22 -6.87,17.39 -14.71,33.41 -23.51,48.02 -8.82,14.61 -14.94,23.95 -18.38,28.04 -3.44,4.08 -6.23,6.98 -8.38,8.59l-25.77 0zm-290.03 0l0 -138.47 196.7 0 0 -64.44 -196.7 0 0 -119.35 248.26 0 0 -64.46 -319.04 0 0 451.27 325.38 0 0 -64.55 -254.6 0zm-162.32 -386.72l-306.13 0 0 135.35c0,52 -1.95,95.28 -5.71,129.99 -3.76,34.58 -9.67,60.36 -17.62,77.33 -7.95,16.98 -16.43,28.58 -25.34,34.8 -8.93,6.24 -19.56,9.25 -31.91,9.25 -10.74,0 -22.45,-2.05 -35.23,-6.23l0 67.68 6.87 1.82c4.84,1.71 11.61,3.43 20.19,5.05 8.6,1.71 16.77,2.58 24.5,2.58 21.8,0 40.39,-4.4 55.54,-13.11 15.25,-8.69 29.21,-24.39 41.89,-47.04 12.67,-22.67 22.13,-55.87 28.46,-99.48 6.35,-43.62 9.46,-97.86 9.46,-162.64l0 -70.89 164.24 0 0 386.81 70.79 0 0 -451.27zm-456.03 0l-306.13 0 0 135.35c0,52 -1.95,95.28 -5.7,129.99 -3.77,34.58 -9.67,60.36 -17.62,77.33 -7.95,16.98 -16.44,28.58 -25.35,34.8 -8.92,6.24 -19.56,9.25 -31.9,9.25 -10.74,0 -22.46,-2.05 -35.23,-6.23l0 67.68 6.86 1.82c4.84,1.71 11.61,3.43 20.19,5.05 8.6,1.71 16.77,2.58 24.5,2.58 21.81,0 40.39,-4.4 55.54,-13.11 15.26,-8.69 29.22,-24.39 41.9,-47.04 12.66,-22.67 22.12,-55.87 28.46,-99.48 6.34,-43.62 9.45,-97.86 9.45,-162.64l0 -70.89 164.25 0 0 386.81 70.78 0 0 -451.27zm-825.87 225.58c0,-46.73 16.13,-86.36 48.56,-118.79 32.44,-32.35 72.08,-48.57 119.02,-48.57 46.84,0 86.47,16.22 118.92,48.57 32.44,32.43 48.66,72.06 48.66,118.79 0,46.84 -16.22,86.48 -48.66,119.04 -32.45,32.54 -72.08,48.76 -118.92,48.76 -46.94,0 -86.58,-16.22 -119.02,-48.76 -32.43,-32.56 -48.56,-72.2 -48.56,-119.04zm-70.9 0c0,64.89 22.9,119.78 68.65,164.68 45.76,44.91 102.37,67.36 169.83,67.36 67.46,0 123.97,-22.45 169.72,-67.36 45.77,-44.9 68.64,-99.79 68.64,-164.68 0,-64.78 -22.87,-119.66 -68.64,-164.56 -45.75,-44.9 -102.26,-67.35 -169.72,-67.35 -67.46,0 -124.07,22.45 -169.83,67.35 -45.75,44.9 -68.65,99.78 -68.65,164.56z"/>
   <path class="fil1" d="M2294.37 1747.45l136.86 -468.92 825.27 -718.36 -536.05 933.45 -426.08 253.83z"/>
   <path class="fil3" d="M2294.37 1747.46l66.89 -633.75 892.76 -1113.69 -471.57 1322.71 -488.08 424.73z"/>
   <path class="fil11" d="M2490.73 2108.9l251.53 -82.66 613.79 80.47 -608.56 69.85 -256.76 -67.66z"/>
   <path class="fil1" d="M2490.73 2108.9l368.83 -206.09 985.97 -60.91 -932 294.77 -422.8 -27.77z"/>
   <path class="fil11" d="M2779.87 1732.21l175.03 -182.85 533.07 -94.09 -448.57 268.7 -259.53 8.24z"/>
   <path class="fil11" d="M2481.83 2670.84l204.16 -55.08 372.42 150.55 -401.92 1.12 -174.66 -96.59z"/>
   <path class="fil3" d="M2835.97 2450.48l427.14 -145.78 948.43 259.27 -990.15 68.03 -385.42 -181.52z"/>
   <path class="fil11" d="M2119.21 1079.52l-99.45 -215.34 100.72 -497.15 80.52 483.33 -81.79 229.16z"/>
   <path class="fil1" d="M2119.2 1079.52l-67.57 -281.63 239.51 -571.16 -19.19 597.97 -152.75 254.82z"/>
   <path class="fil11" d="M999.83 2578.44l-174.61 -112.53 -443.42 26.68 428.14 132.7 189.89 -46.85z"/>
   <path class="fil1" d="M999.83 2578.44l-229.6 -106.59 -530.74 106.43 538.98 88.5 221.36 -88.34z"/>
   <path class="fil1" d="M931.06 2304.98l-338.85 -86.89 -529.33 -564.08 681.34 358.18 186.84 292.79z"/>
   <path class="fil3" d="M931.06 2304.98l-403.15 -189.25 -527.91 -831.4 767 610.02 164.06 410.63z"/>
   <path class="fil0" d="M1006.42 1670.67l-146.17 -143.23 -71.01 -431.82 212.97 365.17 4.21 209.88z"/>
   <path class="fil11" d="M1006.42 1670.67l-214.44 -134.5 -199.81 -503.07 353.76 385.06 60.49 252.51z"/>
   <path class="fil10" d="M6270.63 5754.45c-16.11,0 -29.44,-4.36 -39.95,-13.02 -10.52,-8.64 -15.77,-18.83 -15.77,-30.56 0,-26.52 17.79,-42.69 53.37,-48.59l87.4 -14.39 0 21.74c0,24.34 -8.08,44.56 -24.33,60.65 -16.17,16.09 -36.38,24.17 -60.72,24.17zm-7.12 -113.92c-21.67,3.15 -38.73,11.16 -51.43,23.92 -12.61,12.79 -18.92,28.23 -18.92,46.42 0,17.54 7.36,32.83 22,45.85 14.71,13.01 33.23,19.56 55.47,19.56 11.07,0 21.5,-1.53 31.37,-4.52 9.86,-3 17.78,-6.47 23.85,-10.44 5.99,-3.95 11.56,-8.4 16.65,-13.42 5.18,-4.93 8.49,-8.41 9.95,-10.34 1.54,-2.02 2.59,-3.64 3.23,-4.85l0 38.8 21.75 0 0 -145.45c0,-26.2 -8.32,-48.19 -24.98,-65.83 -16.65,-17.7 -37.44,-26.51 -62.42,-26.51 -9.62,0 -19.16,1.45 -28.55,4.36 -9.38,2.91 -17.05,6.23 -23.04,9.94 -6.06,3.72 -11.73,7.93 -16.98,12.7 -5.25,4.7 -8.66,8.08 -10.19,10.02 -1.45,2.03 -2.75,3.49 -3.64,4.38l14.64 14.47 7.12 -8.34c5.26,-5.82 13.5,-11.56 24.74,-17.13 11.32,-5.59 23.29,-8.42 35.9,-8.42 18.84,0 34.44,6.71 46.89,20.14 12.54,13.42 18.76,30.15 18.76,50.22l-92.17 14.47zm-120.18 -41.24c0,25.88 -15.45,38.89 -46.17,38.89l-80.13 0 0 -77.7 80.13 0c30.72,0 46.17,12.94 46.17,38.81zm-41.24 60.64c33.96,0 50.94,15.44 50.94,46.17 0,13.58 -4.37,24.26 -13.18,32.01 -8.74,7.77 -21.35,11.57 -37.76,11.57l-85.06 0 0 -89.75 85.06 0zm-106.81 -121.28l0 232.86 106.81 0c22.55,0 40.35,-6.06 53.28,-18.11 12.94,-12.12 19.4,-27.82 19.4,-47.3 0,-9.14 -1.36,-17.38 -4.11,-24.82 -2.75,-7.44 -5.83,-13.1 -9.22,-16.98 -3.4,-3.88 -7.36,-7.2 -11.88,-9.94 -4.45,-2.75 -7.61,-4.46 -9.46,-5.09 -1.79,-0.66 -3.16,-1.07 -4.13,-1.38l7.36 -4.54c4.68,-3.15 9.53,-8.81 14.47,-16.9 4.84,-8.16 7.28,-17.22 7.28,-27.16 0,-17.55 -6.23,-32.02 -18.69,-43.43 -12.45,-11.47 -28.94,-17.21 -49.23,-17.21l-101.88 0zm-48.98 116.43c0,27.57 -9.3,51.02 -27.81,70.35 -18.6,19.32 -40.83,29.02 -66.71,29.02 -25.88,0 -48.19,-9.7 -66.8,-29.02 -18.66,-19.33 -27.97,-42.78 -27.97,-70.35 0,-27.57 9.31,-51.02 27.97,-70.34 18.61,-19.32 40.92,-29.04 66.8,-29.04 25.88,0 48.11,9.72 66.71,29.04 18.51,19.32 27.81,42.77 27.81,70.34zm-211.04 -0.09c0,33.65 11.49,62.27 34.44,85.88 22.97,23.61 50.3,35.41 81.92,35.41 31.69,0 59.02,-11.8 81.99,-35.41 22.96,-23.61 34.45,-52.23 34.45,-85.88 0,-33.64 -11.49,-62.25 -34.45,-85.86 -22.97,-23.61 -50.3,-35.41 -81.99,-35.41 -31.62,0 -58.95,11.8 -81.92,35.41 -22.95,23.61 -34.44,52.22 -34.44,85.86zm-160.8 53.53l53.53 -58.29 2.42 0 87.16 121.28 26.77 0 -99.54 -138.35 87.4 -94.51 -29.1 0 -128.64 138.34 0 -138.34 -21.75 0 0 232.86 21.75 0 0 -62.99zm-361.83 62.99l293.52 0 0 -232.86 -21.83 0 0 211.03 -113.92 0 0 -211.03 -21.84 0 0 211.03 -114.17 0 0 -211.03 -21.76 0 0 232.86zm-148.66 43.58c-4.93,12.61 -10.67,21.91 -17.47,27.74 -6.71,5.82 -15.36,8.73 -26.11,8.73 -8.08,-0.16 -15.36,-1.77 -21.83,-4.93l0 21.98 2.83 0.99c1.62,0.97 4.28,1.77 8,2.58 3.64,0.81 7.36,1.22 11,1.22 16.91,0 30.31,-4.45 40.35,-13.42 10.03,-8.9 19.24,-23.86 27.65,-44.89l111.5 -276.44 -24.34 0 -82.47 203.75 -82.4 -203.75 -24.17 0 94.53 232.86 -17.07 43.58zm-252.65 -276.44l0 68c0,39.79 -2.26,71.07 -6.71,93.79 -4.54,22.72 -9.95,37.44 -16.26,44.07 -6.3,6.62 -13.98,9.94 -22.96,9.94 -6.47,0 -12.94,-1.29 -19.4,-3.8l0 20.86 2.34 0.98c1.86,0.88 4.69,1.77 8.41,2.58 3.72,0.81 7.36,1.21 10.99,1.21 9.96,0 18.61,-2.34 25.96,-7.03 7.36,-4.61 14.15,-12.85 20.38,-24.67 6.22,-11.72 11,-29.19 14.23,-52.3 3.24,-23.12 4.85,-51.67 4.85,-85.63l0 -46.17 118.94 0 0 211.03 21.76 0 0 -232.86 -162.53 0zm-220.51 232.86l24.42 0 0 -315.25 181.92 0 0 -24.43 -206.34 0 0 339.68zm-167.51 -14.55c0,4.77 1.61,8.81 4.84,12.05 3.24,3.23 7.28,4.84 12.22,4.84 4.85,0 8.89,-1.61 12.05,-4.84 3.16,-3.24 4.77,-7.28 4.77,-12.05 0,-4.85 -1.61,-8.89 -4.77,-12.12 -3.16,-3.24 -7.2,-4.86 -12.05,-4.86 -4.94,0 -8.98,1.62 -12.22,4.86 -3.23,3.23 -4.84,7.27 -4.84,12.12zm-230.91 -116.43l0 -208.7 -24.41 0 0 339.68 24.41 0 0 -97.1 77.46 -84.82 126.22 181.92 29.19 0 -140.69 -198.99 128.57 -140.69 -31.7 0 -189.05 208.7zm-102.43 116.43c0,4.77 1.63,8.81 4.86,12.05 3.23,3.23 7.28,4.84 12.21,4.84 4.85,0 8.89,-1.61 12.04,-4.84 3.17,-3.24 4.78,-7.28 4.78,-12.05 0,-4.85 -1.61,-8.89 -4.78,-12.12 -3.15,-3.24 -7.19,-4.86 -12.04,-4.86 -4.93,0 -8.98,1.62 -12.21,4.86 -3.23,3.23 -4.86,7.27 -4.86,12.12zm-44.2 14.55l0 -339.68 -19.41 0 -225.51 293.52 0 -293.52 -24.41 0 0 339.68 19.4 0 225.76 -293.51 0 293.51 24.17 0zm-436.85 -14.55c0,4.77 1.62,8.81 4.85,12.05 3.24,3.23 7.28,4.84 12.21,4.84 4.86,0 8.89,-1.61 12.04,-4.84 3.17,-3.24 4.78,-7.28 4.78,-12.05 0,-4.85 -1.61,-8.89 -4.78,-12.12 -3.15,-3.24 -7.18,-4.86 -12.04,-4.86 -4.93,0 -8.97,1.62 -12.21,4.86 -3.23,3.23 -4.85,7.27 -4.85,12.12zm-153.2 -53.44l94.53 -121.29 0 189.28 21.83 0 0 -232.86 -17.06 0 -99.3 128.63 -99.45 -128.63 -17.06 0 0 232.86 21.75 0 0 -189.28 94.76 121.29zm-182.55 -164.87l-155.4 194.06 0 -194.06 -21.76 0 0 232.86 19.41 0 155.16 -193.97 0 193.97 22 0 0 -232.86 -19.41 0z"/>
   <path class="fil12" d="M1875.49 5102.74c224.06,-72.37 435.41,-110.63 686.68,-114.54l13.01 -0.21 0.02 -1412.59 -386.21 0.19c5.31,-21.95 11.79,-43.51 19.41,-64.64l431.16 0.04 0 171.63 171.99 0 0 1543.88c-335.95,-19.08 -655.19,-18.84 -985.12,14.32 14.86,-47.11 31.2,-93.15 49.06,-138.08zm764.05 -50.13c-105.07,0.31 -209.14,4.29 -313.39,18.81 -90.51,12.62 -179.87,32.61 -268.6,54.31 -15.17,3.71 -30.41,7.49 -45.57,11.28l-0.91 0.24c-6.13,1.57 -10.12,7.46 -9.12,13.7l0.3 1.84c0.99,6.23 6.57,10.79 12.85,10.31l0.93 -0.08c118.99,-7.63 237.98,-13.5 357.27,-14.57 120.02,-1.02 239.74,2.89 359.65,8.99l13.87 0.71 0 -1410.78 -107.26 0 -0.02 1305.24zm-1108.52 50.13c-224.05,-72.36 -435.41,-110.63 -686.67,-114.54l-13.01 -0.21 -0.02 -1412.59 386.22 0.19c-5.32,-21.95 -11.81,-43.52 -19.42,-64.64l-431.16 0.04 0 171.63 -171.98 0 0 1543.88c335.94,-19.08 655.17,-18.83 985.1,14.32 -14.86,-47.11 -31.21,-93.14 -49.06,-138.08zm-764.04 -50.13c105.07,0.31 209.14,4.29 313.39,18.81 90.51,12.62 179.88,32.61 268.6,54.31 15.18,3.71 30.41,7.49 45.57,11.28l0.91 0.24c6.13,1.57 10.12,7.46 9.12,13.7l-0.3 1.84c-0.99,6.23 -6.57,10.79 -12.85,10.31l-0.93 -0.08c-118.99,-7.63 -237.98,-13.5 -357.27,-14.57 -120.01,-1.02 -239.74,2.89 -359.65,8.99l-13.87 0.71 0 -1410.78 107.26 0 0.02 1305.24z"/>
   <path class="fil12" style="mask:url(#id22)" d="M1894.39 1483.56c-106.2,123.36 -191.25,268.52 -142.58,436.35 39.67,136.76 145.51,253.85 194.81,392.08 71.19,199.56 3.97,379.88 -106.79,546.87 95.06,-44.92 179.67,-108.28 247.38,-189.46 188.04,-225.46 182.98,-469.47 15.16,-704.85 -116.98,-164.09 -228.68,-269.03 -207.98,-480.99zm-628.19 551.71c-312.36,620.33 308.92,616.87 282.94,913.75l-0.81 9.33 -534.61 0 -74.16 150.93 64.07 38.8 1399.25 0 64.08 -38.8 -74.17 -150.93 -841.99 0 26.27 -18.57c82.44,-58.28 129.67,-131.51 129.67,-233.97 0,-296.68 -400.58,-421.51 -440.54,-670.54zm-140.57 1219.21c79.84,87.97 136.1,194.84 162.98,310.75l829.3 0c26.87,-115.92 83.14,-222.78 162.97,-310.75l-1155.25 0zm1276.77 1044.47c-189.16,-130.3 -302.58,-344.45 -302.58,-575.39 0,-18.04 0.72,-36.07 2.11,-54.06l-797.35 0c1.39,17.99 2.11,36.02 2.11,54.06 0,230.94 -113.42,445.09 -302.58,575.39 317.2,235.12 527.43,547.19 645.62,924.87 0.28,0.86 1.03,1.34 1.93,1.21 0.9,-0.14 1.49,-0.83 1.49,-1.74l0 -759.49c-72.35,-21.88 -122.53,-88.88 -122.53,-165.22 0,-95.34 77.29,-172.63 172.64,-172.63 95.34,0 172.63,77.29 172.63,172.63 0,76.34 -50.17,143.34 -122.52,165.22l0 759.49c0,0.91 0.59,1.6 1.49,1.74 0.89,0.13 1.64,-0.36 1.92,-1.21 118.19,-377.68 328.42,-689.75 645.62,-924.87zm-779.48 -3522.89c52.48,346.2 -358.3,545.4 -358.3,899.56 0,391.37 472.85,539.89 556.95,894.49 15.05,-110.18 -3.32,-203.01 -61.46,-306.83 -33.43,-59.71 -73.75,-115.31 -107.54,-174.92 -145.18,-256.14 -104.52,-389.52 51.74,-622.96 13.46,-20.11 26.69,-40.37 39.2,-61.09 16.7,-27.67 32.15,-56.19 44.81,-85.95 89.89,-211.32 -22.12,-391.03 -165.4,-542.3zm285.77 675.82c-36.54,236.43 94.4,355.82 202,506.73 170.3,238.87 175.65,488 -15.63,717.33 -67.59,81.06 -160.94,155.39 -283.93,206.87 515.34,-737.15 -467.8,-803.86 97.56,-1430.93zm-205.43 1496.25l695.9 0 81.09 165.05 -74.52 45.12 -702.47 0 -702.48 0 -74.51 -45.12 81.08 -165.05 531.61 0c25.33,-289.44 -616.82,-293.03 -265.69,-948.6 4.87,265.94 443.69,391.36 443.69,706.28 0,88.55 -33.53,171.31 -134,242.32l120.3 0zm0 296.13l601.23 0c-87.5,90.1 -150.52,204.06 -178.41,331.19l-422.82 0 -422.82 0c-27.9,-127.13 -90.92,-241.09 -178.41,-331.19l601.23 0zm0 415.02l409.8 0c-1.97,21.17 -3.02,42.59 -3.02,64.28 0,240.4 123.31,451.97 310.11,575.02 -302.59,220.67 -526.9,523.37 -653.62,928.29 -1.78,5.68 -7.36,9.17 -13.24,8.26 -5.88,-0.91 -10.14,-5.89 -10.14,-11.84l0 -767.26c70.4,-17.78 122.52,-81.52 122.52,-157.45 0,-89.7 -72.71,-162.41 -162.41,-162.41 -89.71,0 -162.42,72.71 -162.42,162.41 0,75.93 52.12,139.67 122.53,157.45l0 767.26c0,5.95 -4.27,10.93 -10.14,11.84 -5.9,0.91 -11.47,-2.58 -13.25,-8.26 -126.72,-404.92 -351.03,-707.62 -653.62,-928.29 186.8,-123.05 310.11,-334.62 310.11,-575.02 0,-21.69 -1.05,-43.11 -3.02,-64.28l409.81 0zm-41.8 -1575.96c92.54,163.25 219.36,278.07 159.84,545.46 -42.57,-392.48 -566.9,-535.77 -566.9,-953.16 0,-372.76 437.12,-567.95 351.98,-931.36 337.53,342.08 227.43,546.03 106.42,726.82 -151.04,225.66 -196.67,355.82 -51.34,612.24z"/>
   <path class="fil13" style="mask:url(#id24)" d="M2402.4 4298.95c-189.16,-130.3 -302.58,-344.45 -302.58,-575.39 0,-18.04 0.72,-36.07 2.11,-54.06l-797.35 0c1.39,17.99 2.11,36.02 2.11,54.06 0,230.94 -113.42,445.09 -302.58,575.39 317.2,235.12 527.43,547.19 645.62,924.87 0.28,0.86 1.03,1.34 1.93,1.21 0.9,-0.14 1.49,-0.83 1.49,-1.74l0 -759.49c-72.35,-21.88 -122.53,-88.88 -122.53,-165.22 0,-95.34 77.29,-172.63 172.64,-172.63 95.34,0 172.63,77.29 172.63,172.63 0,76.34 -50.17,143.34 -122.52,165.22l0 759.49c0,0.91 0.59,1.6 1.49,1.74 0.89,0.13 1.64,-0.36 1.92,-1.21 118.19,-377.68 328.42,-689.75 645.62,-924.87zm-699.14 -639.67l409.8 0c-1.97,21.17 -3.02,42.59 -3.02,64.28 0,240.4 123.31,451.97 310.11,575.02 -302.59,220.67 -526.9,523.37 -653.62,928.29 -1.78,5.68 -7.36,9.17 -13.24,8.26 -5.88,-0.91 -10.14,-5.89 -10.14,-11.84l0 -767.26c70.4,-17.78 122.52,-81.52 122.52,-157.45 0,-89.7 -72.71,-162.41 -162.41,-162.41 -89.71,0 -162.42,72.71 -162.42,162.41 0,75.93 52.12,139.67 122.53,157.45l0 767.26c0,5.95 -4.27,10.93 -10.14,11.84 -5.9,0.91 -11.47,-2.58 -13.25,-8.26 -126.72,-404.92 -351.03,-707.62 -653.62,-928.29 186.8,-123.05 310.11,-334.62 310.11,-575.02 0,-21.69 -1.05,-43.11 -3.02,-64.28l409.81 0z"/>
   <path class="fil14" style="mask:url(#id26)" d="M1661.46 2083.32c92.54,163.25 219.36,278.07 159.84,545.46 -42.57,-392.48 -566.9,-535.77 -566.9,-953.16 0,-372.76 437.12,-567.95 351.98,-931.36 337.53,342.08 227.43,546.03 106.42,726.82 -151.04,225.66 -196.67,355.82 -51.34,612.24zm-38.54 -1307.26c52.48,346.2 -358.3,545.4 -358.3,899.56 0,391.37 472.85,539.89 556.95,894.49 15.05,-110.18 -3.32,-203.01 -61.46,-306.83 -33.43,-59.71 -73.75,-115.31 -107.54,-174.92 -145.18,-256.14 -104.52,-389.52 51.74,-622.96 13.46,-20.11 26.69,-40.37 39.2,-61.09 16.7,-27.67 32.15,-56.19 44.81,-85.95 89.89,-211.32 -22.12,-391.03 -165.4,-542.3z"/>
   <path class="fil12" style="mask:url(#id28)" d="M1661.46 2083.32c92.54,163.25 219.36,278.07 159.84,545.46 -42.57,-392.48 -566.9,-535.77 -566.9,-953.16 0,-372.76 437.12,-567.95 351.98,-931.36 337.53,342.08 227.43,546.03 106.42,726.82 -151.04,225.66 -196.67,355.82 -51.34,612.24zm-38.54 -1307.26c52.48,346.2 -358.3,545.4 -358.3,899.56 0,391.37 472.85,539.89 556.95,894.49 15.05,-110.18 -3.32,-203.01 -61.46,-306.83 -33.43,-59.71 -73.75,-115.31 -107.54,-174.92 -145.18,-256.14 -104.52,-389.52 51.74,-622.96 13.46,-20.11 26.69,-40.37 39.2,-61.09 16.7,-27.67 32.15,-56.19 44.81,-85.95 89.89,-211.32 -22.12,-391.03 -165.4,-542.3z"/>
   <path class="fil12" style="mask:url(#id30)" d="M1703.26 3244.26l601.23 0c-87.5,90.1 -150.52,204.06 -178.41,331.19l-422.82 0 -422.82 0c-27.9,-127.13 -90.92,-241.09 -178.41,-331.19l601.23 0zm-577.63 10.22c79.84,87.97 136.1,194.84 162.98,310.75l829.3 0c26.87,-115.92 83.14,-222.78 162.97,-310.75l-1155.25 0z"/>
   <path class="fil12" style="mask:url(#id32)" d="M1703.26 2948.13l695.9 0 81.09 165.05 -74.52 45.12 -702.47 0 -702.48 0 -74.51 -45.12 81.08 -165.05 531.61 0c25.33,-289.44 -616.82,-293.03 -265.69,-948.6 4.87,265.94 443.69,391.36 443.69,706.28 0,88.55 -33.53,171.31 -134,242.32l120.3 0zm-437.06 -912.86c-312.36,620.33 308.92,616.87 282.94,913.75l-0.81 9.33 -534.61 0 -74.16 150.93 64.07 38.8 1399.25 0 64.08 -38.8 -74.17 -150.93 -841.99 0 26.27 -18.57c82.44,-58.28 129.67,-131.51 129.67,-233.97 0,-296.68 -400.58,-421.51 -440.54,-670.54z"/>
   <path class="fil12" style="mask:url(#id34)" d="M1703.26 2948.13l695.9 0 81.09 165.05 -74.52 45.12 -702.47 0 -702.48 0 -74.51 -45.12 81.08 -165.05 531.61 0c25.33,-289.44 -616.82,-293.03 -265.69,-948.6 4.87,265.94 443.69,391.36 443.69,706.28 0,88.55 -33.53,171.31 -134,242.32l120.3 0zm-437.06 -912.86c-312.36,620.33 308.92,616.87 282.94,913.75l-0.81 9.33 -534.61 0 -74.16 150.93 64.07 38.8 1399.25 0 64.08 -38.8 -74.17 -150.93 -841.99 0 26.27 -18.57c82.44,-58.28 129.67,-131.51 129.67,-233.97 0,-296.68 -400.58,-421.51 -440.54,-670.54z"/>
   <path class="fil12" style="mask:url(#id36)" d="M1908.69 1451.88c-36.54,236.43 94.4,355.82 202,506.73 170.3,238.87 175.65,488 -15.63,717.33 -67.59,81.06 -160.94,155.39 -283.93,206.87 515.34,-737.15 -467.8,-803.86 97.56,-1430.93zm-14.3 31.68c-106.2,123.36 -191.25,268.52 -142.58,436.35 39.67,136.76 145.51,253.85 194.81,392.08 71.19,199.56 3.97,379.88 -106.79,546.87 95.06,-44.92 179.67,-108.28 247.38,-189.46 188.04,-225.46 182.98,-469.47 15.16,-704.85 -116.98,-164.09 -228.68,-269.03 -207.98,-480.99z"/>
   <path class="fil12" style="mask:url(#id38)" d="M1908.69 1451.88c-36.54,236.43 94.4,355.82 202,506.73 170.3,238.87 175.65,488 -15.63,717.33 -67.59,81.06 -160.94,155.39 -283.93,206.87 515.34,-737.15 -467.8,-803.86 97.56,-1430.93zm-14.3 31.68c-106.2,123.36 -191.25,268.52 -142.58,436.35 39.67,136.76 145.51,253.85 194.81,392.08 71.19,199.56 3.97,379.88 -106.79,546.87 95.06,-44.92 179.67,-108.28 247.38,-189.46 188.04,-225.46 182.98,-469.47 15.16,-704.85 -116.98,-164.09 -228.68,-269.03 -207.98,-480.99z"/>
  </g>
 </g>
</svg>
